# xmcd
#
# Track frame offsets:
#	150
#	13386
#	28985
#	45416
#	59544
#
# Disc length: 1029 seconds
#
# Revision: 1
# Processed by: cddbd v1.5.2PL0 Copyright (c) Steve Scherf et al.
# Submitted via: audiograbber 1.83.01
#
DISCID=41040305
DTITLE=Wonderful Spells - The Prophecy Of Smarmulous Rex
DYEAR=2007
DGENRE=Indie
TTITLE0=Vermilion
TTITLE1=Starlette
TTITLE2=Hopeful Love #4
TTITLE3=Violets
TTITLE4=Black Cat
EXTD=
EXTT0=
EXTT1=
EXTT2=
EXTT3=
EXTT4=
PLAYORDER=
